<?xml version="1.0" ?><!DOCTYPE svg  PUBLIC '-//W3C//DTD SVG 1.1//EN'  'http://www.w3.org/Graphics/SVG/1.1/DTD/svg11.dtd'><svg height="100%" style="fill-rule:evenodd;clip-rule:evenodd;stroke-linejoin:round;stroke-miterlimit:2;" version="1.1" viewBox="0 0 64 64" width="100%" xml:space="preserve" xmlns="http://www.w3.org/2000/svg" xmlns:serif="http://www.serif.com/" xmlns:xlink="http://www.w3.org/1999/xlink"><g transform="matrix(1,0,0,1,-640,-160)"><g id="medium-apps-platform" transform="matrix(1,0,0,1,640,160)"><rect height="64" style="fill:none;" width="64" x="0" y="0"/><g transform="matrix(1,0,0,1,-640,-160)"><circle cx="660" cy="192" r="16" style="fill:rgb(115,139,149);"/></g><g transform="matrix(0.4375,0,0,0.9375,-243.75,-148)"><circle cx="660" cy="192" r="16" style="fill:rgb(115,139,149);"/></g><g transform="matrix(0.1875,0,0,0.875,-66.75,-136)"><circle cx="660" cy="192" r="16" style="fill:rgb(115,139,149);"/></g><g transform="matrix(1,0,0,1,-640,-160)"><path d="M698.59,203.87C698.129,205.22 697.584,206 697,206C695.344,206 694,199.727 694,192C694,184.273 695.344,178 697,178C697.139,178 697.276,178.044 697.41,178.13C696.563,180.606 696,184.998 696,190C696,197.079 697.128,202.937 698.59,203.87Z" style="fill:rgb(97,120,129);"/></g><g transform="matrix(1,0,0,1,-640,-160)"><path d="M649.733,179.733C647.403,182.512 646,186.093 646,190C646,198.831 653.169,206 662,206C665.907,206 669.488,204.597 672.267,202.267C669.331,205.771 664.924,208 660,208C651.169,208 644,200.831 644,192C644,187.076 646.229,182.669 649.733,179.733Z" style="fill:rgb(97,120,129);"/></g><g transform="matrix(1,0,0,1,-640,-160)"><path d="M683.082,177.571C681.223,180.269 680,184.831 680,190C680,198.279 683.137,205 687,205C687.665,205 688.308,204.801 688.918,204.429C687.8,206.052 686.451,207 685,207C681.137,207 678,200.279 678,192C678,185.146 680.15,179.36 683.082,177.571Z" style="fill:rgb(97,120,129);"/></g></g></g></svg>