<?xml version="1.0" encoding="UTF-8"?>
<svg id="WORDMARK_copy" data-name="WORDMARK copy" xmlns="http://www.w3.org/2000/svg" viewBox="0 0 504.88 170.62">
  <defs>
    <style>
      .cls-1 {
        fill: #fff;
      }

      .cls-2 {
        fill: #35689a;
      }

      .cls-3 {
        fill: #34679a;
      }
    </style>
  </defs>
  <path class="cls-2" d="m157.27,53.94c0-9.09.07-18.06-.04-27.03-.03-2.83-1.38-5.3-3.04-7.56-5.63-7.68-15.59-9.81-23.06-4.51-4.62,3.27-7.69,7.88-7.7,13.84-.05,28.12-.05,56.24-.03,84.36,0,9.89-4.07,17.66-12.32,22.96-14.94,9.6-36.13,1.72-40.08-17.07-.41-1.97-.46-4.05-.46-6.08-.04-11.51-.02-23.01-.02-34.52,0-4.2-1.8-6-5.99-6.01-3.35,0-6.7.03-10.04-.02-3.14-.05-5.74-2.42-6.14-5.5-.36-2.77,2.18-6.33,5.06-6.39,5.39-.11,10.84-.27,16.15.42,6.55.84,12.4,7.74,12.63,13.41.07,1.86.37,3.71.38,5.57.04,10.98.02,21.96.02,32.93,0,4.89,1.51,9.08,5.52,12.17,4.45,3.42,9.39,4.02,14.4,1.89,5.02-2.13,8.09-6.09,8.57-11.72.13-1.58.19-3.16.19-4.74.01-26.65.05-53.31-.03-79.96-.02-6.02,1.36-11.61,4.47-16.7,4.29-7.01,10.59-11.54,18.61-13.07,13.04-2.49,25.02,2.59,31.7,14.59,2.17,3.91,3.47,8.22,3.51,12.77.07,8.51.06,17.02.03,25.54,0,1.19.26,1.81,1.46,2.35,8.98,3.97,13.22,11.31,13.94,20.74.57,7.49-1.07,14.55-6.55,20.08-6.94,6.99-15.46,8.6-24.66,5.87-8.81-2.61-14-8.91-15.91-17.82-1.84-8.63-.08-16.48,5.64-23.3,2.88-3.44,6.64-5.51,10.93-6.7,1-.28,2-.55,2.84-.78Zm-8.04,24.95c.35,8.35,5,12.74,12.94,12.39,4.1-.18,7.36-2.08,9.23-5.96,1.3-2.68,1.77-5.1,1.37-8.12-.07-5.45-3.81-9.75-9.09-10.77-5.74-1.11-10.81,1.65-12.98,6.52-.73,1.64-1.48,3.13-1.48,5.93Z"/>
  <path class="cls-2" d="m318.55,67.92c-2.31-.31-4.48-.62-6.67-.88-5.05-.61-10.06,3.33-10.82,9.55-.49,4.08.04,8.02,3.14,11.11,3.26,3.25,7.21,3.78,11.39,2.26,4.31-1.57,6.35-4.97,6.8-9.41.1-.99.09-1.99.09-2.99,0-13.85,0-27.7,0-41.55v-1.99h12.34c.03.49.07.94.07,1.39-.02,15.26.07,30.52-.11,45.78-.13,11-9.31,21.34-19.67,22.47-14.2,1.55-23.78-7.67-26.1-19.25-1.87-9.3.32-17.57,7.09-24.3,5.96-5.92,13.18-7.52,21.23-5.15.47.14,1.14.74,1.15,1.14.09,3.98.05,7.96.05,11.82Z"/>
  <path class="cls-3" d="m280.48,102.53h-12.29v-1.97c0-8.04.02-16.08-.02-24.12,0-1.74-.15-3.48-.34-5.21-.08-.67-.39-1.36-.75-1.94-1.45-2.39-4.84-3.59-7.92-2.87-2.92.67-4.88,2.9-5.04,5.99-.14,2.69-.09,5.4-.09,8.09,0,6.69,0,13.38,0,20.07v1.96h-12.51v-1.91c0-9.92.2-19.84-.05-29.75-.28-10.69,7.03-16.21,16.17-16.82,4.49-.3,9.04-.37,13.36,1.41,3.97,1.64,7.04,4.24,8.57,8.32.56,1.5.94,3.16.95,4.76.09,11.09.06,22.18.06,33.27,0,.22-.06.44-.1.72Z"/>
  <path class="cls-3" d="m219.59,55.07h12.41v1.86c0,10.04-.21,20.08.06,30.11.27,9.94-6.06,14.85-13.44,16.15-5.77,1.02-11.53,1.02-17.01-1.52-5.61-2.59-8.56-6.99-8.6-13.17-.06-10.86-.03-21.71-.03-32.57,0-.23.07-.46.13-.8h12.34c0,.6,0,1.22,0,1.85,0,8.69,0,17.37,0,26.06,0,.99-.03,2.01.17,2.98.72,3.58,3.53,5.56,7.39,5.3,3.9-.26,6.4-2.63,6.53-6.47.13-3.99.05-7.98.06-11.97,0-5.86,0-11.73,0-17.79Z"/>
  <path class="cls-1" d="m433.76,34.28v8.11c-2.04,0-4.12,0-6.2,0-3.36.02-6.13,1.14-7.74,4.29-.35.69-.72,1.46-.76,2.21-.1,2.27-.04,4.54-.04,6.9h13.61v8.05h-13.61c0,.76,0,1.38,0,2,0,11.61-.03,23.23.03,34.84,0,1.57-.46,2.05-2,1.96-2.1-.12-4.21-.03-6.51-.03,0-.7,0-1.32,0-1.94,0-17.36-.12-34.73.11-52.09.07-4.99,2.76-9.03,7.04-11.79,2.73-1.76,5.73-2.61,9.01-2.53,2.29.06,4.57.01,7.05.01Z"/>
  <path class="cls-1" d="m347.32,34.35h9.02c0,.47,0,.87,0,1.26.01,14.61.05,29.21.03,43.82,0,4.65.95,8.9,4.68,12.05,2.2,1.85,4.85,2.58,7.69,2.6,3.33.03,6.65,0,10.05,0v8.75c-5.32-.31-10.62-.16-15.75-1.03-7.3-1.23-11.82-6.11-14.5-12.87-1.06-2.66-1.24-5.42-1.25-8.19-.05-15.19-.02-30.39-.02-45.58,0-.23.03-.45.06-.83Z"/>
  <path class="cls-1" d="m438.07,44.2h8.4v11.58h16.46v8.1h-16.3c-.04.55-.1.94-.1,1.33,0,8.04-.02,16.08.03,24.13.02,3.23,2.06,5.11,5.29,5.09,3.69-.02,7.37,0,11.14,0v7.82c-5.2,0-10.45.63-15.46-.18-5-.8-7.85-4.82-9.07-9.73-.31-1.27-.37-2.62-.37-3.93-.02-14.67-.02-29.34-.02-44.19Z"/>
  <path class="cls-1" d="m396.29,102.47h-8.36v-46.56h8.36v46.56Z"/>
  <path class="cls-1" d="m391.84,50.48c-3.01,0-4.88-2-4.88-5.23,0-2.9,1.91-4.99,4.55-4.99,3.68,0,5.92,1.84,5.6,5.02-.29,2.95-1.35,5.57-5.28,5.2Z"/>
</svg>