<?xml version="1.0" encoding="utf-8"?>
<!-- Generator: Adobe Illustrator 19.0.0, SVG Export Plug-In . SVG Version: 6.00 Build 0)  -->
<svg version="1.1" id="Layer_1" xmlns="http://www.w3.org/2000/svg" xmlns:xlink="http://www.w3.org/1999/xlink" x="0px" y="0px"
	 viewBox="0 0 500 500" style="enable-background:new 0 0 500 500;" xml:space="preserve">
<style type="text/css">
	.st0{fill:#FD4F00;}
</style>
<g id="XMLID_1_">
	<path id="XMLID_2_" class="st0" d="M204.6,299.3c-1.6-0.3-2.2-0.4-2.9-0.5c-20.4-3.8-33.2-16.1-39.4-35.5
		c-3.8-12.1,3.1-21,15.8-21.6c10.4-0.5,17.5,5.5,23.8,12.4c8.1,8.9,15.5,18.5,23.5,27.6c11.4,13.1,24.9,21.5,43.4,18.9
		c16.5-2.3,31-9,43.5-19.9c1.9-1.6,4-3.1,5.9-4.6c-0.4-0.5-0.8-1-1.3-1.5c-10.5,3.3-21.3,4.4-32.2,3.8c-16.6-0.8-32.4-4.3-46.6-13.4
		c-12.9-8.3-22.4-19.5-27-34.4c-3.7-12,3.8-20.4,16.3-18.7c4.9,0.7,9.1,2.9,12.8,6.1c3,2.6,5.9,5.3,9,7.8
		c14.6,11.7,34.9,12.3,53.4-0.4c-30.4-0.1-51-16.8-69.2-38c-7.1-8.3-14-16.7-21.3-24.9c-14-15.8-29.6-29.7-50.9-34.4
		c-27.2-6.1-53.5-2.1-78.7,9.5c-5,2.3-9.9,5-15,9.3c2.6,0,4,0,5.4,0c12.7-0.3,22.2,5.3,29.1,15.7c5,7.6,7.4,16.1,9.2,24.9
		c2.7,13.1,1.3,26.4,2.8,39.5c4,33.8,21.2,57.3,53.3,69.4C179.1,300.8,191.2,302.3,204.6,299.3z M123.4,145.3
		c-5.1,1.3-9.1-0.8-13.3-5c7.2-1.8,13.5-2.5,20.3-2.7C129.8,141.9,127.2,144.3,123.4,145.3z M289.7,342.4c-0.4-3.2-3.2-4.7-5.4-6.4
		c-9.7-7.5-20.9-10.2-32.9-10.4c-7.1-0.1-14.2-0.7-21-3.2c-3.1-1.1-6.5-2.6-6.5-6.6c0.1-4,3.6-5.2,6.8-6.2c2.6-0.8,5.3-1.3,8.3-2
		c-7.6-4.9-15-5.5-24.9-1.6c-15.6,6.3-30.9,5.5-46.4-0.1c-8.8-3.2-16.5-8.1-24.6-12.5l-0.2,0.2l0.2-0.1c-0.2-0.6-0.6-0.6-1-0.3
		c0.2,0.2,0.4,0.4,0.6,0.6c6.7,11,15.8,19.8,26,27.4c19.7,14.6,41.3,23.2,66.4,19.4c8.1-1.2,16.3-2.2,24.5-2.9
		C270.1,336.9,279.9,339.8,289.7,342.4z M242.2,184.7c-0.5-0.4-1.1-1.4-2.2-0.4c9.1,12.3,20.7,21.3,34.7,27
		c22.6,9.2,45.6,10.8,69.1,2.7c18.2-6.3,31.4-0.1,38.2,17.6c1-20.6-11.1-35.5-30.4-38.5c-10.8-1.7-20.8,1.9-31,4.9
		C292.4,206.1,266.2,202.1,242.2,184.7z M383,264.8c3.7,0.3,7.4,0.6,11,1c-8.3-7.3-18.4-7.9-28.7-7.3c-15.6,0.9-26.9,9.9-37.1,20.6
		c-9,9.5-17.2,20.1-30.7,23.9c0.2,0.4,0.3,0.6,0.3,0.6c1.8,0,3.6,0.1,5.4,0c19.6-0.9,38-5,52.7-19.2c4.6-4.5,8.8-9.4,13.2-14.1
		C373,266.5,377.5,264.4,383,264.8z M337.5,240.6c-14.6,1.3-27.3,7.3-39.2,15.3c-9.2,6.1-19,9-30,7.1c-1.9-0.3-3.9-0.6-5.8-0.9
		c0,0.3,0,0.5-0.1,0.8c0.7,0.4,1.4,0.8,2.1,1.1c1.8,0.7,3.6,1.6,5.6,2.1c21.2,5,41.5,2.5,59.9-9.4c11.5-7.5,23.5-8.9,36.5-6.9
		c1.3,0.2,2.6,0.4,3.9,0.6c1.2,0.1,2.5,1.3,4.1,0C363,242.1,350.8,239.4,337.5,240.6z M285.3,191c7.7,0.3,15.3-0.7,23.3-5.5
		c-2.3,0.2-3.3,0.2-4.3,0.4c-11,2.2-21-0.2-29.8-7.2c-3.2-2.6-6.5-5.1-9.8-7.6c-13-10-27.9-13.3-44.3-13c0.3,0.8,0.3,1.4,0.6,1.6
		C238.7,177.7,259.3,190.1,285.3,191z M413.8,283.1c-11-10.9-25.7-12.3-39.4-2.8c9,0.4,15.8,3.3,21.3,9c1.9,2,4,4,6.1,5.7
		c8.3,6.7,22.4,7,30.6,0.8C422.8,292.1,422.8,292.1,413.8,283.1z M304.3,366.6c-9.7-18-25.9-22-44.6-20.8c5.5,1.5,10.7,3.9,15.5,7.2
		c4.4,3,8,6.8,11.7,10.7c7.2,7.7,18.4,12.4,25.8,10.8C309.2,372.3,306.2,370,304.3,366.6z M394.2,266.2l0-0.3l0,0l0,0l-0.2,0
		l0.1,0.1L394.2,266.2z M290.2,342.8l-0.4-0.2l0.1,0.2L290.2,342.8z M289.9,342.6l0-0.2l0,0.1l0-0.1l-0.1,0l0,0.1L289.9,342.6z"/>
</g>
</svg>
